<?xml version="1.0" encoding="iso-8859-1"?>
<!-- Generator: Adobe Illustrator 19.0.0, SVG Export Plug-In . SVG Version: 6.00 Build 0)  -->
<svg version="1.1" id="Capa_1" xmlns="http://www.w3.org/2000/svg" xmlns:xlink="http://www.w3.org/1999/xlink" x="0px" y="0px"
	 viewBox="0 0 512 512" style="enable-background:new 0 0 512 512;" xml:space="preserve">
<path style="fill:#D94158;" d="M113.72,237.672c-3.838,0-7.676-1.465-10.605-4.395l-63.633-63.633
	c-5.859-5.859-5.859-15.352,0-21.211l42.422-42.422c5.859-5.859,15.352-5.859,21.211,0l63.633,63.633
	c5.859,5.859,5.859,15.352,0,21.211l-42.422,42.422C121.396,236.207,117.558,237.672,113.72,237.672z"/>
<path style="fill:#CC2944;" d="M198.578,152.828c-3.984,0-7.793-1.582-10.605-4.395l-63.647-63.647
	c-2.813-2.813-4.395-6.621-4.395-10.605s1.582-7.793,4.395-10.605l42.437-42.422c5.859-5.859,15.352-5.859,21.211,0l63.633,63.633
	c5.859,5.859,5.859,15.352,0,21.211l-42.422,42.437C206.371,151.246,202.562,152.828,198.578,152.828z"/>
<path style="fill:#FFB64C;" d="M377.199,125.349L256,252.549l-85.8,90.3l-88.2-88.5c-6-5.7-6-15.3,0-21l174-174.3l16.8-16.8
	c6-5.7,15.3-5.7,21.301,0L377.199,125.349z"/>
<path style="fill:#FF9800;" d="M377.199,125.349L256,252.549v-193.5l16.8-16.8c6-5.7,15.3-5.7,21.301,0L377.199,125.349z"/>
<path style="fill:#68676B;" d="M442.599,212.05L377.8,276.849l-121.8,1.8l-72.001,0.901c-5.7-5.7-5.7-15.3,0-21.301L256,186.25
	l165.3-165c6-6,15.3-6,21.299,0C495.399,73.75,495.399,159.25,442.599,212.05z"/>
<path style="fill:#57555C;" d="M442.599,212.05L377.8,276.849l-121.8,1.8V186.25l165.3-165c6-6,15.3-6,21.299,0
	C495.399,73.75,495.399,159.25,442.599,212.05z"/>
<path style="fill:#5AF1FF;" d="M512,269.649v64.501l-29.399,27.299c-18.001,0-34.9-6-46-15.3c-10.801,9.3-26.7,15.3-45,15.3
	c-18.001,0-33.9-6-45-15.3c-10.801,9.3-26.7,15.3-45,15.3c-18.001,0-33.9-6-45-15.3c-0.3,0.3-0.3,0.3-0.601,0.3
	c-10.8,9.3-26.4,15-44.399,15c-18.001,0-33.9-6-45-15.3c-10.801,9.3-26.7,15.3-45,15.3c-18.001,0-33.9-6-45-15.3
	c-10.801,9.3-48.7,15.3-67,15.3L0,329.049v-59.7c0-9.899,9.3-17.1,18.9-14.399c3.6,0.899,8.8,1.5,12.7,1.5
	c17.1,0,30-8.699,30-16.199c0-8.401,6.899-15,15-15c8.399,0,15,6.599,15,15c0,21,60,21,60,0c0-8.401,6.899-15,15-15
	c8.399,0,15,6.599,15,15c0,21,60,21,60,0c0-8.101,6.599-14.7,14.399-15c0.3,0,0.3,0,0.601,0c8.399,0,15,6.599,15,15c0,21,60,21,60,0
	c0-8.401,6.899-15,15-15c8.399,0,15,6.599,15,15c0,21,60,21,60,0c0-8.401,6.899-15,15-15c8.399,0,15,6.599,15,15
	c0,7.5,14.2,16.199,31,16.199c3.9,0,7.5-0.601,11.1-1.199C503.301,252.849,512,260.049,512,269.649z"/>
<path style="fill:#00E7F0;" d="M512,269.649v64.501l-29.399,27.299c-18.001,0-34.9-6-46-15.3c-10.801,9.3-26.7,15.3-45,15.3
	c-18.001,0-33.9-6-45-15.3c-10.801,9.3-26.7,15.3-45,15.3c-18.001,0-33.9-6-45-15.3c-0.3,0.3-0.3,0.3-0.601,0.3V225.25
	c0.3,0,0.3,0,0.601,0c8.399,0,15,6.599,15,15c0,21,60,21,60,0c0-8.401,6.899-15,15-15c8.399,0,15,6.599,15,15c0,21,60,21,60,0
	c0-8.401,6.899-15,15-15c8.399,0,15,6.599,15,15c0,7.5,14.2,16.199,31,16.199c3.9,0,7.5-0.601,11.1-1.199
	C503.301,252.849,512,260.049,512,269.649z"/>
<path style="fill:#1AB9FF;" d="M512,319.15v161.1c0,8.399-6.599,15-15,15H15c-8.401,0-15-6.601-15-15V314.049
	c0.3,0.901,0.601,1.501,0.901,2.401c1.199,6.899,14.799,15,30.7,15c17.1,0,30-8.699,30-16.199c0-8.401,6.899-15,15-15
	c8.399,0,15,6.599,15,15c0,7.5,13.2,16.199,30,16.199c17.1,0,30-8.699,30-16.199c0-8.401,6.899-15,15-15c8.399,0,15,6.599,15,15
	c0,7.5,13.2,16.199,30,16.199c17.1,0,30-8.699,30-16.199c0-8.101,6.599-14.7,14.399-15c0.3,0,0.3,0,0.601,0c8.399,0,15,6.599,15,15
	c0,7.5,13.2,16.199,30,16.199c17.1,0,30-8.699,30-16.199c0-8.401,6.899-15,15-15c8.399,0,15,6.599,15,15
	c0,7.5,13.2,16.199,30,16.199c17.1,0,30-8.699,30-16.199c0-8.401,6.899-15,15-15c8.399,0,15,6.599,15,15
	c0,7.5,14.2,16.199,31,16.199c14.099,0,24.3-5.7,28.2-11.1C511.099,319.749,511.7,319.749,512,319.15z"/>
<path style="fill:#00A5FF;" d="M512,319.15v161.1c0,8.399-6.599,15-15,15H256v-195c0.3,0,0.3,0,0.601,0c8.399,0,15,6.599,15,15
	c0,7.5,13.2,16.199,30,16.199c17.1,0,30-8.699,30-16.199c0-8.401,6.899-15,15-15c8.399,0,15,6.599,15,15
	c0,7.5,13.2,16.199,30,16.199c17.1,0,30-8.699,30-16.199c0-8.401,6.899-15,15-15c8.399,0,15,6.599,15,15
	c0,7.5,14.2,16.199,31,16.199c14.099,0,24.3-5.7,28.2-11.1C511.099,319.749,511.7,319.749,512,319.15z"/>
<g>
</g>
<g>
</g>
<g>
</g>
<g>
</g>
<g>
</g>
<g>
</g>
<g>
</g>
<g>
</g>
<g>
</g>
<g>
</g>
<g>
</g>
<g>
</g>
<g>
</g>
<g>
</g>
<g>
</g>
</svg>
